<svg width="41" height="41" viewBox="0 0 41 41" fill="none" xmlns="http://www.w3.org/2000/svg">
<path d="M31.3114 27.2875C32.6233 27.1447 33.5287 25.5762 33.3337 23.7841C33.1386 21.992 31.9169 20.6551 30.605 20.7979C29.293 20.9407 28.3876 22.5092 28.5827 24.3012C28.7777 26.0933 29.9994 27.4303 31.3114 27.2875Z" fill="#FEE656"/>
<path d="M14.764 11.0512C16.1237 10.9695 17.1394 9.46323 17.0327 7.68678C16.926 5.91034 15.7372 4.53646 14.3775 4.61815C13.0178 4.69983 12.002 6.20615 12.1088 7.9826C12.2155 9.75904 13.4043 11.1329 14.764 11.0512Z" fill="#FEE656"/>
<path d="M22.6187 10.0849C22.8218 8.39886 21.8901 6.89995 20.5378 6.73704C19.1854 6.57412 17.9244 7.8089 17.7213 9.49498C17.5182 11.1811 18.4498 12.68 19.8022 12.8429C21.1546 13.0058 22.4156 11.771 22.6187 10.0849Z" fill="#FEE656"/>
<path d="M9.50365 12.2534C10.852 11.9362 11.5923 10.1798 11.1572 8.33032C10.7221 6.48086 9.27631 5.23874 7.92796 5.55596C6.57962 5.87318 5.8393 7.62962 6.27441 9.47907C6.70953 11.3285 8.15531 12.5706 9.50365 12.2534Z" fill="#FEE656"/>
<path d="M28.7193 30.2247C33.5592 27.5181 39.0974 31.3362 38.3703 34.2542C37.5887 37.3805 34.613 35.6956 32.3869 36.5092C31.0191 37.0089 28.9307 39.8149 26.5251 38.1012C24.4271 36.6053 25.561 31.9896 28.7193 30.2247ZM12.2232 12.9438C15.6826 12.0374 20.5065 14.7248 19.9555 17.7902C19.4366 20.6762 15.4263 19.4174 13.7991 20.0227C11.6787 20.8107 9.02007 23.133 7.50819 20.8107C5.80413 18.1874 9.18663 13.7414 12.2232 12.9438Z" fill="#FEE656"/>
<path d="M5.72917 15.8703C6.91037 15.1883 7.15446 13.3997 6.27436 11.8753C5.39427 10.351 3.72326 9.66807 2.54206 10.35C1.36087 11.032 1.11678 12.8206 1.99687 14.345C2.87697 15.8693 4.54798 16.5522 5.72917 15.8703Z" fill="#FEE656"/>
<path d="M26.9615 29.207C28.1887 28.4985 28.4528 26.6586 27.5515 25.0974C26.6502 23.5363 24.9247 22.8451 23.6976 23.5536C22.4704 24.2621 22.2063 26.102 23.1076 27.6631C24.0089 29.2243 25.7344 29.9155 26.9615 29.207Z" fill="#FEE656"/>
<path d="M23.4197 33.8292C24.496 33.0656 24.523 31.2547 23.48 29.7845C22.437 28.3142 20.7189 27.7414 19.6425 28.505C18.5662 29.2686 18.5392 31.0794 19.5822 32.5497C20.6252 34.0199 22.3433 34.5928 23.4197 33.8292Z" fill="#FEE656"/>
<path d="M37.0416 28.1111C38.3535 28.0301 39.3334 26.6104 39.2303 24.94C39.1271 23.2697 37.98 21.9813 36.6681 22.0623C35.3562 22.1433 34.3763 23.563 34.4795 25.2334C34.5826 26.9037 35.7297 28.1921 37.0416 28.1111Z" fill="#FEE656"/>
</svg>
